<svg width="250" height="200" xmlns="http://www.w3.org/2000/svg">
 <!-- Created with Method Draw - http://github.com/duopixel/Method-Draw/ -->

 <g>
  <title>background</title>
  <rect x="-1" y="-1" width="252" height="202" id="canvas_background" fill="#ffffff"/>
  <g id="canvasGrid" display="none">
   <rect id="svg_2" width="100%" height="100%" x="0" y="0" stroke-width="0" fill="url(#gridpattern)"/>
  </g>
 </g>
 <g>
  <title>Layer 1</title>
  <rect fill="#DDDDDD" stroke-width="1.5" x="0.250009" y="0.000026" width="250" height="200" id="svg_1" rx="2"/>
  <rect fill="#999999" stroke="null" stroke-width="6" stroke-opacity="null" x="170.250009" y="0.000026" width="45" height="200" id="svg_11"/>
  <rect fill="#444444" stroke-width="0" x="170.250009" y="-0.000002" width="45" height="40" id="svg_3"/>
  <rect fill="#444444" stroke-width="0" x="170.250009" y="160.000026" width="45" height="40" id="svg_5"/>
  <rect fill="#DDDDDD" stroke-width="1.5" x="171.250009" y="41.00053" width="43" height="7" id="svg_13"/>
  <rect fill="#DDDDDD" stroke-width="1.5" x="171.250009" y="55.99969" width="43" height="7" id="svg_15"/>
  <rect fill="#DDDDDD" stroke-width="1.5" x="171.250009" y="70.998851" width="43" height="7" id="svg_16"/>
  <rect fill="#DDDDDD" stroke-width="1.5" x="171.250009" y="85.998011" width="43" height="7" id="svg_17"/>
  <rect fill="#DDDDDD" stroke-width="1.5" x="171.250009" y="100.4972" width="43" height="7" id="svg_18"/>
  <rect fill="#DDDDDD" stroke-width="1.5" x="171.250009" y="115.49636" width="43" height="7" id="svg_19"/>
  <rect fill="#DDDDDD" stroke-width="1.5" x="171.250009" y="130.495521" width="43" height="7" id="svg_20"/>
  <rect fill="#DDDDDD" stroke-width="1.5" x="171.250009" y="145.494681" width="43" height="7" id="svg_21"/>
  <rect fill="#999999" stroke-width="6" x="34.248111" y="159.997468" width="135.998669" height="40" id="svg_22" stroke="null"/>
  <rect fill="#444444" stroke-width="0" x="35.748095" y="161.99745" width="132.998711" height="38" id="svg_29"/>
  <rect fill="#333333" stroke="null" stroke-width="1.5" stroke-opacity="null" x="170.246779" y="18.832163" width="45" height="2" id="svg_31"/>
  <rect fill="#333333" stroke="null" stroke-width="1.5" stroke-opacity="null" x="170.246779" y="178.666675" width="45" height="2" id="svg_33"/>
  <rect fill="#999999" stroke-width="6" x="34.248111" y="133.497645" width="135.998669" height="40" id="svg_35" stroke="null"/>
  <rect fill="#DDDDDD" stroke-width="1.5" x="35.748095" y="135.497627" width="132.998711" height="38" id="svg_36"/>
  <rect fill="#999999" stroke-width="6" x="34.748719" y="150.99836" width="134.499108" height="1.499988" id="svg_38" stroke="null"/>
 </g>
</svg>