<svg width="340.66" height="261.869" xmlns="http://www.w3.org/2000/svg">

 <g>
  <title>background</title>
  <rect fill="none" id="canvas_background" height="263.869" width="342.66" y="-1" x="-1"/>
 </g>
 <g>
  <title>Layer 1</title>
  <path stroke="null" id="svg_1" d="m169.829985,34.059493c76.572277,0 138.650012,43.377774 138.650012,96.869956c0,53.502286 -62.077735,96.88006 -138.650012,96.88006s-138.650012,-43.376764 -138.650012,-96.87905c0,-53.492182 62.077735,-96.870966 138.650012,-96.870966z" fill="#FFFFFF"/>
  <path id="svg_8" d="m324.2,130.294l16.46,17.63l-23.521,14.12l6.61,27.3l-25.31,0.7l-1.74,29.729l-28.21,-7.77l-4.76,28.06l-26.11,-10.37l-13.61,24.74l-20.39,-17.64l-17.78,25.069l-19.58,-21.279l-21.4,19.869l-13.97,-23.399l-25.23,14.85l-8.72,-26.2l-29.21,11.511l-4.3,-25.83l-26.13,1.63l3.91,-26.3l-26.73,-0.11l6.25,-28.72l-20.729,-11.65l16.5,-18.74l-14.81,-26.06l24.09,-7.62l-6.34,-27.88l26.42,-0.35l3.06,-27.65l23.9,7.93l7.91,-26.95l24.14,13.06l9.99,-23.84l20.91,14.53l14.69,-22.66l19.75,19.74l17.45,-18.05l15.3,22.75l23.9,-15.36l9.479,25.11l24.021,-11.37l6.18,26.2l28.47,-5.07l-0.87,25.64l28.771,3.1l-8.15,24.77l25.061,10.74l-15.622,22.09zm-16.4,-0.069c0,-52.94 -61.63,-95.87 -137.65,-95.87s-137.65,42.93 -137.65,95.87c0,52.95 61.63,95.88 137.65,95.88s137.65,-42.93 137.65,-95.88z" fill="#A58252"/>
  <g id="svg_9">
   <g id="svg_10">
    <path id="svg_11" d="m124.572,80.886c0,-6.363 3.613,-7.944 6.178,-7.944c2.566,0 6.174,1.581 6.174,7.944c0,6.366 -3.607,7.95 -6.174,7.95c-2.564,0 -6.178,-1.584 -6.178,-7.95l0,0zm-4.736,0c0,10.662 7.904,11.958 10.914,11.958s10.912,-1.296 10.912,-11.958c0,-10.658 -7.902,-11.953 -10.912,-11.953s-10.914,1.295 -10.914,11.953l0,0z" fill="#A58252"/>
    <path id="svg_12" d="m149.611,92.246l-4.434,0l0,-13.647l-2.436,0l0,-3.174l2.436,0l0,-1.369c0,-3.493 1.9,-4.823 4.939,-4.823c1.297,0 1.898,0.033 2.277,0.063l0,3.575l-1.234,0c-1.518,0 -1.549,0.48 -1.549,1.885l0,0.669l2.879,0l0,3.174l-2.879,0l0.001,13.647l0,0z" fill="#A58252"/>
    <path id="svg_13" d="m159.514,92.246l-4.432,0l0,-13.647l-2.438,0l0,-3.174l2.438,0l0,-1.369c0,-3.493 1.898,-4.823 4.939,-4.823c1.295,0 1.898,0.033 2.275,0.063l0,3.575l-1.234,0c-1.518,0 -1.549,0.48 -1.549,1.885l0,0.669l2.877,0l0,3.174l-2.877,0l0.001,13.647l0,0z" fill="#A58252"/>
    <path id="svg_14" d="m168.85,75.423l0,16.823l-4.428,0l0,-16.823l4.428,0l0,0zm0,-2.023l-4.428,0l0,-4.104l4.428,0l0,4.104l0,0z" fill="#A58252"/>
    <path id="svg_15" d="m186.953,86.106c-0.16,1.731 -1.521,6.57 -7.701,6.57c-6.336,0 -7.795,-4.839 -7.795,-8.364c0,-5.423 2.377,-9.316 8.082,-9.316c2.66,0 7.031,1.204 7.443,6.446l-4.496,0c-0.193,-1.104 -0.889,-2.839 -2.947,-2.712c-2.789,0 -3.518,2.776 -3.518,4.856c0,1.825 0.063,5.452 3.42,5.452c2.252,0 3.012,-2.145 3.012,-2.933l4.5,0.001l0,0z" fill="#A58252"/>
    <path id="svg_16" d="m193.973,75.423l0,16.823l-4.435,0l0,-16.823l4.435,0l0,0zm0,-2.023l-4.435,0l0,-4.104l4.435,0l0,4.104l0,0z" fill="#A58252"/>
    <path id="svg_17" d="m206.875,86.216c0,2.026 -1.988,3.287 -3.947,3.287c-0.854,0 -2.053,-0.475 -2.053,-2.018c0,-1.827 1.359,-2.237 3.002,-2.521c1.832,-0.284 2.555,-0.567 2.998,-0.914l0,2.166l0,0zm4.333,-6.353c0,-4.145 -4.334,-4.873 -6.703,-4.873c-3.44,0 -7.021,0.729 -7.522,5.887l4.272,0c0.125,-0.983 0.504,-2.341 2.716,-2.341c1.135,0 2.903,0.095 2.903,1.961c0,0.945 -0.853,1.229 -1.549,1.326l-3.979,0.601c-2.813,0.41 -4.904,2.086 -4.904,5.37c0,3.454 2.597,4.883 5.129,4.883c2.998,0 4.421,-1.396 5.431,-2.445c0.097,0.972 0.158,1.229 0.412,2.015l4.776,0l0,-0.659c-0.539,-0.191 -0.981,-0.633 -0.981,-2.625l0,-9.1l-0.001,0z" fill="#A58252"/>
    <polygon id="svg_18" points="219.089,92.246 214.66,92.246 214.66,69.527 219.089,69.527   " fill="#A58252"/>
   </g>
  </g>
  <path id="svg_19" d="m170.147,218.165c71.125,0 128.987,-39.447 128.987,-87.937c0,-48.488 -57.86,-87.938 -128.987,-87.938c-71.122,0 -128.985,39.449 -128.985,87.938c0,48.49 57.863,87.937 128.985,87.937l0,0zm-125.812,-87.936c0,-46.739 56.439,-84.767 125.813,-84.767c69.375,0 125.815,38.027 125.815,84.767s-56.439,84.765 -125.815,84.765c-69.374,-0.001 -125.813,-38.025 -125.813,-84.765l0,0z" fill="#A58252"/>
  <path id="svg_38" d="m92.33231,98.9345l155.99537,0l0,0c20.43584,0 37.00232,14.32689 37.00232,32.00001c0,17.6731 -16.56649,31.99999 -37.00232,31.99999l-155.99537,0l0,0c-20.43581,0 -37.00231,-14.32689 -37.00231,-31.99999c0,-17.67312 16.5665,-32.00001 37.00231,-32.00001z" stroke-width="NaN" fill="#A58252"/>
  <path stroke="null" id="svg_39" d="m97.483096,104.934501l145.693802,0l0,0c19.0863,0 34.558764,11.640609 34.558764,26.00001c0,14.359401 -15.472474,26 -34.558764,26l-145.693802,0l0,0c-19.08628,0 -34.558764,-11.640599 -34.558764,-26c0,-14.35941 15.472484,-26.00001 34.558764,-26.00001z" stroke-width="NaN" fill="#FFFFFF"/>
  <text font-weight="bold" xml:space="preserve" text-anchor="start" font-family="Helvetica, Arial, sans-serif" font-size="26" id="svg_34" y="139.947119" x="76.665611" stroke-width="0" fill="#A58252">Web Developer</text>
  <text font-weight="bold" xml:space="preserve" text-anchor="start" font-family="Helvetica, Arial, sans-serif" font-size="29" id="svg_35" y="189.434494" x="109.899988" stroke-width="0" fill="#A58252">&amp; Gamer</text>
 </g>
</svg>
